<svg xmlns="http://www.w3.org/2000/svg" version="1.1" xmlns:xlink="http://www.w3.org/1999/xlink" xmlns:svgjs="http://svgjs.dev/svgjs" width="1000" height="1125" viewBox="0 0 1000 1125"><g transform="matrix(1,0,0,1,1.7053025658242404e-13,0)"><svg viewBox="0 0 320 360" data-background-color="#ffffff" preserveAspectRatio="xMidYMid meet" height="1125" width="1000" xmlns="http://www.w3.org/2000/svg" xmlns:xlink="http://www.w3.org/1999/xlink"><g id="tight-bounds" transform="matrix(1,0,0,1,0,0)"><svg viewBox="0 0 320 360" height="360" width="320"><g><svg></svg></g><g><svg viewBox="0 0 320 360" height="360" width="320"><g><path xmlns="http://www.w3.org/2000/svg" d="M320 204.145c-0.08-8.44-5.414-15.128-5.494-23.568-0.04-8.44 5.215-18.631 5.136-27.071-2.667-8.002-9.833-12.7-12.501-20.702-2.667-8.002-0.836-19.348-3.463-27.35-5.016-6.808-13.297-9.037-18.274-15.805-5.016-6.808-6.768-18.154-11.744-24.921-6.847-4.897-15.407-4.499-22.294-9.396-6.847-4.897-12.023-15.168-18.91-20.065-8.042-2.548-16.044 0.518-24.086-2.07-8.042-2.548-16.123-10.709-24.165-13.257-8.44 0.08-15.128 5.414-23.568 5.494-8.44 0.04-18.631-5.215-27.071-5.135-8.002 2.667-12.7 9.833-20.702 12.5-8.002 2.667-19.348 0.836-27.35 3.504-6.808 5.016-9.037 13.297-15.805 18.273-6.808 5.016-18.154 6.768-24.922 11.784-4.897 6.847-4.499 15.407-9.395 22.294-4.897 6.847-15.168 12.023-20.065 18.91-2.548 8.042 0.478 16.044-2.07 24.086-2.548 8.042-10.709 16.123-13.257 24.165 0.04 8.44 5.414 15.128 5.494 23.568 0.04 8.44-5.215 18.631-5.136 27.071 2.667 8.002 9.833 12.7 12.501 20.702 2.667 8.002 0.836 19.348 3.503 27.35 5.016 6.808 13.297 9.037 18.273 15.845 5.016 6.808 6.768 18.154 11.745 24.921 6.847 4.897 15.407 4.499 22.294 9.396 6.847 4.897 12.023 15.168 18.91 20.065 8.042 2.548 16.044-0.478 24.086 2.07 8.042 2.548 16.123 10.709 24.165 13.257 8.44-0.08 15.128-5.414 23.568-5.494 8.44-0.04 18.631 5.215 27.071 5.135 8.002-2.667 12.7-9.833 20.702-12.5 8.002-2.667 19.348-0.836 27.35-3.504 6.808-5.016 9.037-13.297 15.845-18.273 6.808-5.016 18.154-6.768 24.921-11.744 4.897-6.847 4.499-15.407 9.396-22.294 4.897-6.847 15.168-12.023 20.064-18.91 2.548-8.042-0.478-16.044 2.071-24.086 2.468-8.121 10.63-16.203 13.177-24.245zM305.987 227.395c-3.623 7.126-12.501 13.456-16.164 20.582-3.623 7.126-2.03 15.088-5.653 22.215-5.653 5.653-16.044 8.918-21.737 14.57-5.653 5.653-6.569 13.735-12.261 19.388-7.126 3.623-18.034 3.503-25.161 7.166-7.126 3.623-10.51 11.028-17.636 14.651-7.922 1.234-18.233-2.229-26.156-0.996-7.922 1.234-13.416 7.246-21.299 8.48-7.922-1.234-16.641-7.763-24.563-8.997-7.922-1.274-14.969 2.747-22.891 1.473-7.126-3.623-13.456-12.54-20.582-16.163-7.126-3.623-15.088-2.03-22.255-5.654-5.653-5.653-8.918-16.044-14.571-21.736-5.653-5.653-13.735-6.609-19.387-12.262-3.623-7.126-3.503-18.034-7.166-25.161-3.623-7.126-11.028-10.51-14.651-17.636-1.234-7.922 2.229-18.233 0.995-26.156-1.274-7.922-7.246-13.416-8.479-21.298 1.274-7.922 7.763-16.641 8.997-24.564 1.234-7.922-2.747-14.969-1.473-22.891 3.623-7.126 12.54-13.456 16.163-20.582 3.623-7.126 2.03-15.088 5.653-22.254 5.653-5.653 16.044-8.918 21.737-14.571 5.653-5.653 6.609-13.735 12.262-19.388 7.126-3.623 18.034-3.503 25.16-7.166 7.126-3.623 10.51-11.028 17.637-14.651 7.922-1.234 18.233 2.229 26.155 0.996 7.922-1.234 13.416-7.246 21.299-8.48 7.922 1.234 16.641 7.763 24.564 8.997 7.922 1.274 14.969-2.747 22.891-1.473 7.126 3.623 13.456 12.54 20.582 16.163 7.126 3.623 15.088 2.03 22.254 5.654 5.653 5.653 8.918 16.044 14.571 21.736 5.653 5.653 13.735 6.609 19.388 12.262 3.623 7.126 3.503 18.034 7.166 25.161 3.623 7.126 11.028 10.51 14.65 17.636 1.274 7.922-2.229 18.233-0.995 26.156 1.234 7.922 7.246 13.416 8.48 21.298-1.234 7.922-7.763 16.641-8.997 24.564-1.234 7.922 2.747 15.009 1.473 22.931z" fill="#2b2b2b" fill-rule="nonzero" stroke="none" stroke-width="1" stroke-linecap="butt" stroke-linejoin="miter" stroke-miterlimit="10" stroke-dasharray="" stroke-dashoffset="0" font-family="none" font-weight="none" font-size="none" text-anchor="none" style="mix-blend-mode: normal" data-fill-palette-color="tertiary"></path></g><g transform="matrix(1,0,0,1,64.37542690905659,80.99999999999999)"><svg viewBox="0 0 191.24914618188683 198.00000000000003" height="198.00000000000003" width="191.24914618188683"><g><svg viewBox="0 0 223.99999999999997 231.90691768014057" height="198.00000000000003" width="191.24914618188683"><g transform="matrix(1,0,0,1,0,161.0023592267135)"><svg viewBox="0 0 223.99999999999997 70.90455845342706" height="70.90455845342706" width="223.99999999999997"><g><svg viewBox="0 0 223.99999999999997 70.90455845342706" height="70.90455845342706" width="223.99999999999997"><g><svg viewBox="0 0 223.99999999999997 38.24253075571177" height="38.24253075571177" width="223.99999999999997"><g transform="matrix(1,0,0,1,0,0)"><svg width="223.99999999999997" viewBox="0.5 -33.5 199.13999938964844 34" height="38.24253075571177" data-palette-color="#2b2b2b"><path d="M11.35 0L0.5 0 0.5-0.8 3.45-2.55 16.7-33.25 22.45-33.25 35.55-2.55 39-0.8 39 0 21 0 21-0.8 25.3-2.65 22.1-10.35 10.45-10.35 7.25-2.65 11.35-0.8 11.35 0ZM16.3-24.25L11.6-13.1 20.95-13.1 16.3-24.25ZM58.7 0L41 0 41-0.8 45.45-2.9 45.45-30.1 41-32.2 41-33 60.85-33Q66.1-33 69.12-30.83 72.15-28.65 72.15-24.85L72.15-24.85Q72.15-22.1 70.35-20.28 68.55-18.45 65.55-17.3L65.55-17.3 74.7-2.95 78.5-0.8 78.5 0 65.3 0 56.35-15.4 54.95-15.4 54.95-2.95 58.7-0.8 58.7 0ZM56.15-30.25L56.15-30.25 54.95-30.25 54.95-17.65 56.45-17.65Q59.45-17.65 61.12-19.38 62.8-21.1 62.8-23.95L62.8-23.95Q62.8-27 61.15-28.63 59.5-30.25 56.15-30.25ZM106.2 0L85.7 0 85.7-0.8 91.2-2.9 91.2-30.25 84.7-30.25 80.3-21.45 79.5-21.45 79.5-33 112.4-33 112.4-21.45 111.59-21.45 107.2-30.25 100.7-30.25 100.7-2.9 106.2-0.8 106.2 0ZM133.79 0L115.39 0 115.39-0.8 119.84-2.9 119.84-30.1 115.39-32.2 115.39-33 133.79-33 133.79-32.2 129.34-30.1 129.34-2.9 133.79-0.8 133.79 0ZM149.09 0.5L149.09 0.5Q145.64 0.5 142.89-0.23 140.14-0.95 137.74-2.2L137.74-2.2 137.24-10.85 138.19-10.85 142.59-4.05Q143.64-3.25 145.07-2.73 146.49-2.2 148.04-2.2L148.04-2.2Q150.59-2.2 152.32-3.3 154.04-4.4 154.04-6.8L154.04-6.8Q154.04-8.2 153.42-9.18 152.79-10.15 150.99-11.13 149.19-12.1 145.64-13.6L145.64-13.6Q142.09-15.05 140.19-17.38 138.29-19.7 138.29-22.75L138.29-22.75Q138.29-25 139.44-26.98 140.59-28.95 142.49-30.4 144.39-31.85 146.77-32.68 149.14-33.5 151.59-33.5L151.59-33.5Q154.29-33.5 156.89-32.85 159.49-32.2 161.49-31.1L161.49-31.1 161.99-23.1 161.09-23.1 156.94-28.95Q155.79-29.8 154.62-30.28 153.44-30.75 151.99-30.75L151.99-30.75Q150.04-30.75 148.77-29.58 147.49-28.4 147.49-26.35L147.49-26.35Q147.49-25.2 148.09-24.25 148.69-23.3 150.14-22.4 151.59-21.5 154.19-20.35L154.19-20.35Q158.79-18.35 160.92-16 163.04-13.65 163.04-10.15L163.04-10.15Q163.04-6.85 161.12-4.48 159.19-2.1 155.99-0.8 152.79 0.5 149.09 0.5ZM193.44 0L172.94 0 172.94-0.8 178.44-2.9 178.44-30.25 171.94-30.25 167.54-21.45 166.74-21.45 166.74-33 199.64-33 199.64-21.45 198.84-21.45 194.44-30.25 187.94-30.25 187.94-2.9 193.44-0.8 193.44 0Z" opacity="1" transform="matrix(1,0,0,1,0,0)" fill="#2b2b2b" class="undefined-text-0" data-fill-palette-color="primary" id="text-0"></path></svg></g></svg></g><g transform="matrix(1,0,0,1,56.12403432143863,47.27067444639718)"><svg viewBox="0 0 111.75193135712271 23.63388400702987" height="23.63388400702987" width="111.75193135712271"><g transform="matrix(1,0,0,1,0,0)"><svg width="111.75193135712271" viewBox="3.549999952316284 -36.20000076293945 216.77000427246094 45.849998474121094" height="23.63388400702987" data-palette-color="#f4a424"><path d="M15.4-3.95L15.4-3.95Q18.2-3.95 20.1-6.33 22-8.7 22-12.45L22-12.45Q22-16.75 20.1-19.07 18.2-21.4 15.25-21.4L15.25-21.4Q12.65-21.4 10.58-19.3 8.5-17.2 8.5-12.85L8.5-12.85Q8.5-8.35 10.5-6.15 12.5-3.95 15.4-3.95ZM3.55-35.35L8.5-35.35 8.5-21.5Q11.2-25.7 16.15-25.7L16.15-25.7Q20.95-25.7 24-22.1 27.05-18.5 27.05-12.55L27.05-12.55Q27.05-7.2 24.15-3.43 21.25 0.35 16.2 0.35 11.15 0.35 8.5-3.85L8.5-3.85 8.5 0 3.55 0 3.55-35.35ZM37.7 0L32.75 0 32.75-35.35 37.7-35.35 37.7 0ZM55.39 0.45L55.39 0.45Q49.8 0.45 46.59-3.2 43.39-6.85 43.39-12.45L43.39-12.45Q43.39-18.15 46.7-21.93 49.99-25.7 55.39-25.7L55.39-25.7Q61.2-25.7 64.34-22.03 67.5-18.35 67.5-12.65 67.5-6.95 64.27-3.25 61.05 0.45 55.39 0.45ZM55.34-21.55L55.34-21.55Q52.09-21.55 50.3-18.98 48.49-16.4 48.49-12.6L48.49-12.6Q48.49-8.85 50.34-6.28 52.2-3.7 55.39-3.7L55.39-3.7Q58.8-3.7 60.57-6.2 62.34-8.7 62.34-12.55L62.34-12.55Q62.34-16.5 60.64-19.03 58.95-21.55 55.34-21.55ZM82.99-4.9L82.99-4.9Q85.59-4.9 87.52-6.93 89.44-8.95 89.44-12.6L89.44-12.6Q89.44-17.1 87.62-19.25 85.79-21.4 83.19-21.4L83.19-21.4Q80.24-21.4 78.54-19.07 76.84-16.75 76.84-12.95L76.84-12.95Q76.84-9 78.67-6.95 80.49-4.9 82.99-4.9ZM89.44-21.4L89.44-25.35 94.34-25.35 94.34-2.15Q94.34 3.7 91.02 6.68 87.69 9.65 82.49 9.65L82.49 9.65Q77.59 9.65 74.24 8L74.24 8 74.24 3.05Q77.44 5.15 81.99 5.15L81.99 5.15Q89.44 5.15 89.44-2.2L89.44-2.2 89.44-4.8Q86.99-0.7 82.09-0.7L82.09-0.7Q77.79-0.7 74.74-3.88 71.69-7.05 71.69-12.85L71.69-12.85Q71.69-18.45 74.54-22.08 77.39-25.7 82.09-25.7L82.09-25.7Q87.14-25.7 89.44-21.4L89.44-21.4ZM126.59-8.45L126.59-11.3 122.79-11.3Q119.99-11.3 118.56-10.2 117.14-9.1 117.14-7.4L117.14-7.4Q117.14-5.65 118.24-4.65 119.34-3.65 121.44-3.65L121.44-3.65Q123.84-3.65 125.21-4.98 126.59-6.3 126.59-8.45L126.59-8.45ZM113.84-19.3L113.84-19.3 113.84-24.05Q116.79-25.75 121.64-25.75L121.64-25.75Q131.59-25.75 131.59-16.1L131.59-16.1 131.59 0 126.74 0 126.74-3Q124.79 0.2 119.89 0.2L119.89 0.2Q116.29 0.2 114.11-1.88 111.94-3.95 111.94-7.15L111.94-7.15Q111.94-10.8 114.69-12.83 117.44-14.85 122.39-14.85L122.39-14.85 126.59-14.85 126.59-16.3Q126.59-18.9 125.34-20.23 124.09-21.55 121.19-21.55L121.19-21.55Q117.14-21.55 113.84-19.3ZM138.19-25.35L143.09-25.35 143.09-20.9Q144.94-25.6 149.74-25.6L149.74-25.6Q150.44-25.6 151.29-25.45L151.29-25.45 151.29-20.65Q150.24-21.1 148.94-21.1L148.94-21.1Q146.39-21.1 144.74-18.85 143.09-16.6 143.09-13.5L143.09-13.5 143.09 0 138.19 0 138.19-25.35ZM168.13-21.55L161.48-21.55 161.48-7.6Q161.48-3.95 164.98-3.95L164.98-3.95Q167.03-3.95 168.43-5.05L168.43-5.05 168.43-0.65Q166.78 0.25 164.38 0.25L164.38 0.25Q156.53 0.25 156.53-7.7L156.53-7.7 156.53-21.55 152.58-21.55 152.58-25.35 156.53-25.35 156.53-31.55 161.48-31.55 161.48-25.35 168.13-25.35 168.13-21.55ZM188.28-24.5L188.28-24.5 188.28-20.05Q185.83-21.5 181.98-21.5L181.98-21.5Q180.23-21.5 179.2-20.7 178.18-19.9 178.18-18.6L178.18-18.6Q178.18-18.25 178.25-17.93 178.33-17.6 178.53-17.28 178.73-16.95 178.91-16.73 179.08-16.5 179.48-16.25 179.88-16 180.1-15.83 180.33-15.65 180.85-15.4 181.38-15.15 181.63-15.03 181.88-14.9 182.5-14.63 183.13-14.35 183.38-14.25L183.38-14.25Q186.33-12.95 188-11.33 189.68-9.7 189.68-7L189.68-7Q189.68-3.6 187.28-1.68 184.88 0.25 180.78 0.25L180.78 0.25Q176.28 0.25 173.28-1.25L173.28-1.25 173.28-5.9Q176.78-3.75 180.53-3.75L180.53-3.75Q182.48-3.75 183.56-4.55 184.63-5.35 184.63-6.65L184.63-6.65Q184.63-7.75 183.78-8.63 182.93-9.5 182.06-9.93 181.18-10.35 179.08-11.25L179.08-11.25Q173.13-13.7 173.13-18.45L173.13-18.45Q173.13-21.8 175.63-23.7 178.13-25.6 181.88-25.6L181.88-25.6Q185.98-25.6 188.28-24.5ZM199.93 0L194.98 0 194.98-25.35 199.93-25.35 199.93 0ZM195.25-30.93Q194.38-31.8 194.38-33.1 194.38-34.4 195.25-35.3 196.13-36.2 197.43-36.2 198.73-36.2 199.63-35.3 200.53-34.4 200.53-33.1L200.53-33.1Q200.53-31.85 199.63-30.95 198.73-30.05 197.43-30.05 196.13-30.05 195.25-30.93ZM220.02-21.55L213.38-21.55 213.38-7.6Q213.38-3.95 216.88-3.95L216.88-3.95Q218.92-3.95 220.32-5.05L220.32-5.05 220.32-0.65Q218.67 0.25 216.27 0.25L216.27 0.25Q208.42 0.25 208.42-7.7L208.42-7.7 208.42-21.55 204.47-21.55 204.47-25.35 208.42-25.35 208.42-31.55 213.38-31.55 213.38-25.35 220.02-25.35 220.02-21.55Z" opacity="1" transform="matrix(1,0,0,1,0,0)" fill="#f4a424" class="undefined-text-1" data-fill-palette-color="secondary" id="text-1"></path></svg></g></svg></g></svg></g></svg></g><g transform="matrix(1,0,0,1,42.78399999999999,0)"><svg viewBox="0 0 138.432 138.432" height="138.432" width="138.432"><g><svg viewBox="0 0 138.432 138.432" height="138.432" width="138.432"><g transform="matrix(1,0,0,1,39.130121860589455,36.587264688927945)"><svg viewBox="0 0 60.17175627882108 65.2574706221441" height="65.2574706221441" width="60.17175627882108"><g><svg xmlns="http://www.w3.org/2000/svg" xmlns:xlink="http://www.w3.org/1999/xlink" version="1.1" x="0" y="0" viewBox="19 15.77400016784668 50 54.22599792480469" enable-background="new 0 0 90 90" xml:space="preserve" height="65.2574706221441" width="60.17175627882108" class="icon-s-0" data-fill-palette-color="accent" id="s-0"><g fill="#f4a424" data-fill-palette-color="accent"><rect x="45" y="66" width="4" height="3" fill="#f4a424" data-fill-palette-color="accent"></rect><rect x="61" y="66" width="4" height="3" fill="#f4a424" data-fill-palette-color="accent"></rect><rect x="45" y="38" width="4" height="26" fill="#f4a424" data-fill-palette-color="accent"></rect><polygon points="45,36 45,34 46.756,29.25 49,34 49,36  " fill="#f4a424" data-fill-palette-color="accent"></polygon><rect x="61" y="43" width="4" height="21" fill="#f4a424" data-fill-palette-color="accent"></rect></g><g fill="#f4a424" data-fill-palette-color="accent"><rect x="53" y="27" width="4" height="42" fill="#f4a424" data-fill-palette-color="accent"></rect></g><g fill="#f4a424" data-fill-palette-color="accent"><rect x="67" y="34" width="2" height="12" fill="#f4a424" data-fill-palette-color="accent"></rect></g><g fill="#f4a424" data-fill-palette-color="accent"><path d="M38 49v-8H22v8h-3v21h22V49H38zM26 45h8v4h-8V45zM37 66H23V53h14V66z" fill="#f4a424" data-fill-palette-color="accent"></path><path d="M30 65.75c3.446 0 6.25-2.804 6.25-6.25s-2.804-6.25-6.25-6.25-6.25 2.804-6.25 6.25S26.554 65.75 30 65.75zM30 57.25c1.241 0 2.25 1.009 2.25 2.25s-1.009 2.25-2.25 2.25-2.25-1.009-2.25-2.25S28.759 57.25 30 57.25z" fill="#f4a424" data-fill-palette-color="accent"></path></g><polygon points="61,41 61,34 62.756,29.25 65,34 65,41 " fill="#f4a424" data-fill-palette-color="accent"></polygon><path d="M54.613 15.774c0 0-2.773 3.896-2.773 6.261s2.942 2.314 2.942 2.314 2.604-0.194 2.604-2.209S54.613 15.774 54.613 15.774z" fill="#f4a424" data-fill-palette-color="accent"></path></svg></g></svg></g><path d="M20.833 53.961L17.939 59.941 17.501 59.729 17.323 57.638 3.942 42.151 5.476 38.982 25.881 39.956 27.765 38.522 28.202 38.733 23.403 48.65 22.966 48.438 23.088 45.567 17.993 45.283 14.887 51.7 18.272 55.52 20.395 53.749ZM8.788 44.772L13.677 50.332 16.169 45.182ZM39.833 29.977L30.922 36.129 30.646 35.729 32.149 33.125 22.691 19.423 19.728 19.914 19.446 19.506 29.443 12.605C31.206 11.388 32.847 10.793 34.368 10.819 35.887 10.855 37.086 11.51 37.965 12.783V12.783C38.603 13.708 38.833 14.686 38.653 15.718 38.47 16.744 38.008 17.797 37.268 18.879V18.879L46.871 22.926 49.529 22.693 49.805 23.093 43.155 27.684 33.292 23.033 32.591 23.518 36.923 29.793 39.557 29.577ZM28.034 15.626V15.626L27.43 16.043 31.813 22.392 32.564 21.873C33.57 21.178 34.156 20.345 34.32 19.372 34.482 18.408 34.232 17.448 33.571 16.49V16.49C32.865 15.468 32.045 14.873 31.111 14.707 30.18 14.546 29.155 14.852 28.034 15.626ZM69.38 20.505L56.914 21.98 56.856 21.498 60.053 19.821 58.086 3.199 54.137 3.666 52.091 9.33 51.609 9.387 50.778 2.366 70.768 0 71.599 7.021 71.117 7.078 67.805 2.048 63.856 2.516 65.824 19.138 69.323 20.022ZM89.022 24.412L78.236 21.199 78.374 20.733 81.346 20.274 86.099 4.317 83.86 2.315 84.001 1.84 94.788 5.053 94.647 5.528 91.677 5.978 86.925 21.935 89.161 23.946ZM99.599 31.953V31.953C98.487 31.09 97.578 30.197 96.872 29.273 96.166 28.349 95.583 27.386 95.122 26.384V26.384L98.124 22.012 98.586 22.37 98.165 27.314C98.301 27.83 98.532 28.352 98.858 28.881 99.188 29.404 99.604 29.861 100.105 30.25V30.25C100.925 30.886 101.752 31.243 102.587 31.321 103.416 31.396 104.13 31.046 104.73 30.273V30.273C105.079 29.824 105.275 29.366 105.32 28.898 105.359 28.427 105.212 27.807 104.88 27.038 104.543 26.275 103.989 25.21 103.218 23.842V23.842C102.439 22.484 102.03 21.193 101.993 19.968 101.966 18.742 102.333 17.638 103.094 16.656V16.656C103.658 15.929 104.372 15.392 105.237 15.042 106.102 14.692 107.021 14.522 107.992 14.531 108.974 14.539 109.949 14.706 110.918 15.031 111.892 15.36 112.774 15.831 113.563 16.443V16.443C114.435 17.119 115.208 17.886 115.882 18.743 116.557 19.61 117.08 20.467 117.451 21.316V21.316L114.691 25.375 114.253 25.034 114.441 20.65C114.281 20.091 114.073 19.587 113.819 19.138 113.555 18.691 113.191 18.287 112.726 17.927V17.927C112.094 17.436 111.426 17.224 110.723 17.289 110.018 17.345 109.409 17.705 108.894 18.368V18.368C108.607 18.739 108.442 19.151 108.4 19.604 108.354 20.062 108.455 20.617 108.702 21.269 108.94 21.922 109.336 22.76 109.889 23.783V23.783C110.869 25.573 111.41 27.113 111.512 28.406 111.609 29.694 111.218 30.905 110.339 32.038V32.038C109.516 33.099 108.496 33.772 107.279 34.057 106.066 34.338 104.781 34.291 103.423 33.915 102.065 33.531 100.79 32.877 99.599 31.953ZM116.774 55.965L111.28 44.677 111.717 44.464 114.352 46.932 129.403 39.607 127.663 36.032 121.641 35.963 121.428 35.526 127.786 32.432 136.594 50.533 130.237 53.626 130.024 53.189 133.686 48.408 131.946 44.832 116.895 52.157 117.211 55.753ZM8.15 97.157L5.224 91.137 5.67 90.92 7.44 92.089 28.037 91.164 29.585 94.348 16.091 109.891 16.05 112.281 15.604 112.498 10.75 102.508 11.196 102.292 13.383 104.184 16.793 100.333 13.651 93.866 8.516 94.168 8.596 96.94ZM22.934 93.368L15.484 93.759 18.006 98.949ZM31.896 126.604L22.901 120.415 23.182 120.006 26.176 120.501 35.686 106.679 34.16 104.052 34.435 103.652 44.524 110.593C46.3 111.815 47.449 113.148 47.973 114.591 48.491 116.031 48.308 117.393 47.423 118.679V118.679C46.783 119.61 45.944 120.176 44.906 120.377 43.873 120.573 42.712 120.517 41.424 120.208V120.208L41.053 130.701 42.241 133.12 41.96 133.529 35.253 128.914 36.088 117.957 35.377 117.468 31.021 123.799 32.177 126.195ZM41.178 110.349V110.349L40.565 109.927 36.164 116.324 36.924 116.847C37.942 117.547 38.935 117.801 39.902 117.608 40.87 117.415 41.687 116.834 42.354 115.865V115.865C43.062 114.835 43.328 113.854 43.151 112.922 42.968 111.986 42.311 111.128 41.178 110.349ZM67.848 138.432L55.29 136.962 55.348 136.469 58.866 135.583 60.828 118.83 56.849 118.364 53.52 123.436 53.027 123.378 53.855 116.306 74.016 118.667 73.188 125.739 72.696 125.681 70.628 119.978 66.649 119.512 64.687 136.265 67.905 137.94ZM93.121 134.017L82.24 137.261 82.098 136.786 84.362 134.766 79.568 118.687 76.565 118.227 76.426 117.762 87.307 114.517 87.445 114.983 85.184 117.013 89.978 133.091 92.979 133.542ZM108.579 124.646V124.646C107.46 125.512 106.363 126.173 105.287 126.63 104.211 127.086 103.123 127.414 102.023 127.614V127.614L98.515 123.583 98.977 123.225 103.694 124.879C104.236 124.877 104.806 124.783 105.405 124.595 106 124.402 106.548 124.111 107.05 123.723V123.723C107.881 123.08 108.439 122.364 108.723 121.575 109.003 120.782 108.842 119.995 108.239 119.216V119.216C107.887 118.762 107.486 118.454 107.035 118.292 106.588 118.137 105.949 118.126 105.116 118.26 104.289 118.39 103.11 118.659 101.578 119.068V119.068C100.059 119.491 98.697 119.563 97.494 119.282 96.294 119.007 95.31 118.373 94.541 117.379V117.379C93.974 116.647 93.628 115.816 93.501 114.886 93.38 113.952 93.446 113.01 93.699 112.062 93.951 111.115 94.361 110.208 94.929 109.342 95.487 108.476 96.166 107.733 96.966 107.114V107.114C97.844 106.434 98.787 105.875 99.794 105.438 100.803 104.992 101.774 104.696 102.707 104.551V104.551L105.966 108.26 105.527 108.6 101.295 107.312C100.708 107.331 100.163 107.41 99.66 107.549 99.157 107.687 98.67 107.939 98.2 108.303V108.303C97.562 108.797 97.186 109.397 97.073 110.103 96.955 110.804 97.153 111.487 97.667 112.151V112.151C97.958 112.527 98.32 112.795 98.752 112.954 99.184 113.112 99.752 113.154 100.454 113.079 101.151 113.007 102.064 112.831 103.193 112.551V112.551C105.199 112.043 106.843 111.904 108.124 112.133 109.404 112.362 110.486 113.047 111.368 114.186V114.186C112.197 115.258 112.598 116.424 112.569 117.683 112.537 118.937 112.164 120.178 111.452 121.407 110.739 122.636 109.782 123.715 108.579 124.646ZM129.456 95.171L123.907 106.532 123.462 106.314 123.792 102.701 108.635 95.298 106.877 98.898 110.559 103.72 110.341 104.165 103.943 101.041 112.852 82.801 119.25 85.926 119.032 86.372 112.966 86.432 111.207 90.032 126.364 97.435 129.01 94.953ZM1.838 72.456C1.838 68.13 5.345 64.622 9.671 64.622 13.998 64.622 17.505 68.13 17.505 72.456 17.505 76.782 13.998 80.29 9.671 80.29 5.345 80.29 1.838 76.782 1.838 72.456ZM118.773 72.456C118.773 68.13 122.28 64.622 126.607 64.622 130.933 64.622 134.44 68.13 134.44 72.456 134.44 76.782 130.933 80.29 126.607 80.29 122.28 80.29 118.773 76.782 118.773 72.456Z" fill="#f4a424" data-fill-palette-color="accent"></path></svg></g></svg></g><g></g></svg></g></svg></g></svg></g><defs></defs></svg><rect width="320" height="360" fill="none" stroke="none" visibility="hidden"></rect></g></svg></g></svg>